<svg width="326" height="57" viewBox="0 0 326 57" fill="none" xmlns="http://www.w3.org/2000/svg">
<path d="M22 44H18.875V40.875V37.75V34.625V31.5H15.75H12.625H9.5H6.375V34.625V37.75V40.875V44H3.25H0.125V40.875V37.75V34.625V31.5V28.375V25.25V22.125V19V15.875H3.25V12.75H6.375V9.625H9.5H12.625H15.75H18.875V12.75H22V15.875H25.125V19V22.125V25.25V28.375V31.5V34.625V37.75V40.875V44H22ZM15.75 25.25H18.875V22.125V19H15.75V15.875H12.625H9.5V19H6.375V22.125V25.25H9.5H12.625H15.75ZM53.25 44H50.125V40.875V37.75V34.625V31.5V28.375H47H43.875H40.75H37.625V31.5V34.625V37.75V40.875V44H34.5H31.375V40.875V37.75V34.625V31.5V28.375V25.25V22.125V19V15.875V12.75V9.625H34.5H37.625H40.75H43.875H47H50.125H53.25V12.75H56.375V15.875V19V22.125V25.25H53.25V28.375H56.375V31.5V34.625V37.75V40.875V44H53.25ZM47 22.125H50.125V19V15.875H47H43.875H40.75H37.625V19V22.125H40.75H43.875H47ZM81.375 44H78.25H75.125H72H68.875H65.75V40.875V37.75V34.625V31.5V28.375V25.25V22.125V19V15.875V12.75V9.625H68.875H72H75.125H78.25H81.375H84.5V12.75V15.875H81.375H78.25H75.125H72V19V22.125H75.125H78.25H81.375H84.5V25.25V28.375H81.375H78.25H75.125H72V31.5V34.625V37.75H75.125H78.25H81.375H84.5V40.875V44H81.375ZM115.75 44H112.625V40.875H109.5V37.75H106.375V34.625H103.25V31.5H100.125V28.375V25.25H97V28.375V31.5V34.625V37.75V40.875V44H93.875H90.75V40.875V37.75V34.625V31.5V28.375V25.25V22.125V19V15.875V12.75V9.625H93.875H97V12.75H100.125V15.875H103.25V19H106.375V22.125H109.5V25.25V28.375H112.625V25.25V22.125V19V15.875V12.75V9.625H115.75H118.875V12.75V15.875V19V22.125V25.25V28.375V31.5V34.625V37.75V40.875V44H115.75ZM147 44H143.875V40.875V37.75V34.625V31.5H140.75H137.625H134.5H131.375V34.625V37.75V40.875V44H128.25H125.125V40.875V37.75V34.625V31.5V28.375V25.25V22.125V19V15.875H128.25V12.75H131.375V9.625H134.5H137.625H140.75H143.875V12.75H147V15.875H150.125V19V22.125V25.25V28.375V31.5V34.625V37.75V40.875V44H147ZM140.75 25.25H143.875V22.125V19H140.75V15.875H137.625H134.5V19H131.375V22.125V25.25H134.5H137.625H140.75ZM176.025 12.595C181.69 12.815 186.64 9.02 186.64 4.73C186.64 1.65 184.165 0.549999 182.075 0.549999C179.82 0.549999 177.29 1.925 175.97 4.345C177.62 6.435 177.07 10.615 175.97 12.485L176.025 12.595ZM167.775 56.87C175.695 56.87 178.555 48.895 179.6 42.24L183.175 19.635C183.725 16.115 182.9 14.74 179.6 14.74C176.96 14.74 173.11 15.785 171.185 16.995V17.105C173 16.72 173.825 16.995 173.495 19.14L170.03 40.535C169.205 45.375 174.265 46.42 174.265 51.15C174.265 53.845 172.835 55.935 170.085 55.935C168.435 55.935 167.555 54.89 167.555 53.57C167.555 51.7 168.875 50.215 171.075 49.72C171.02 46.31 168.71 44.605 166.07 44.605C162.88 44.605 160.35 47.025 160.35 50.435C160.35 53.79 162.99 56.87 167.775 56.87ZM201.867 14.63C191.967 14.63 183.882 22.495 183.882 32.01C183.882 39.27 189.327 44.44 197.192 44.44C206.982 44.44 215.232 36.245 215.232 27.115C215.232 19.855 209.787 14.63 201.867 14.63ZM197.192 44.11C194.662 44.11 193.892 41.415 193.892 37.895C193.892 32.34 195.762 14.96 201.812 14.96C204.507 14.96 205.167 17.765 205.167 21.34C205.167 27.5 203.297 44.11 197.192 44.11ZM224.556 44.44C234.511 44.44 245.126 34.045 245.126 22.825C245.126 17.215 242.211 14.63 238.911 14.63C235.831 14.63 233.246 16.83 233.246 19.745C233.246 22.165 234.786 24.365 237.371 24.695C237.976 23.1 239.351 22.385 240.891 22.385C242.706 22.385 244.136 23.43 244.136 26.125C244.136 32.835 235.556 42.57 229.561 42.57C226.976 42.57 227.141 40.15 228.021 34.87L230.551 19.745C231.156 16.06 229.891 14.85 226.756 14.85C224.116 14.85 220.266 15.895 218.341 17.105V17.215C220.156 16.83 220.981 17.105 220.651 19.25L218.066 35.53C217.076 41.69 219.386 44.44 224.556 44.44ZM258.531 44.44C264.911 44.44 270.851 40.535 274.591 33.715L274.371 33.605C271.841 37.07 268.101 38.115 265.186 38.115C260.346 38.06 257.541 34.76 257.541 28.545C257.541 22.55 260.566 14.96 265.241 14.96C267.056 14.96 267.881 16.61 267.881 18.535C267.881 22.055 264.581 26.95 258.311 26.29L258.256 26.62C269.916 28.71 276.021 25.245 276.021 20.79C276.021 16.445 271.071 14.685 265.241 14.63C254.736 14.63 247.366 22.99 247.366 32.56C247.366 40.04 252.206 44.44 258.531 44.44ZM283.167 44.44C284.487 44.44 286.027 44.275 287.952 44V43.89C286.082 42.955 287.622 36.025 288.557 32.23C290.592 24.035 294.112 17.38 296.642 17.38C298.017 17.38 298.292 18.59 297.797 21.285L295.377 35.805C294.222 42.57 296.147 44.44 300.492 44.44C301.812 44.44 303.352 44.275 305.277 44V43.89C303.407 42.955 304.947 36.025 305.882 32.23C307.917 24.035 311.437 17.38 313.967 17.38C315.342 17.38 315.562 18.59 315.122 21.285L312.867 35.53C311.767 42.515 315.562 44.385 320.237 44.385C321.557 44.385 322.877 44.275 324.307 44V43.89C321.887 42.955 322.052 38.94 323.207 32.01L324.527 24.2C325.187 20.405 325.627 14.63 318.752 14.63C314.077 14.63 309.182 18.04 305.497 32.065H305.332L307.092 24.035C307.917 20.295 308.302 14.63 301.427 14.63C296.752 14.63 291.857 18.04 288.172 32.065H288.007L290.757 19.635C291.527 15.95 290.262 14.74 287.127 14.74C284.487 14.74 280.637 15.785 278.712 16.995V17.105C280.527 16.72 281.407 16.995 281.022 19.14L278.052 35.805C276.842 42.57 278.822 44.44 283.167 44.44Z" fill="white"/>
</svg>
