<svg width="124" height="39" viewBox="0 0 124 39" fill="none" xmlns="http://www.w3.org/2000/svg">
<path d="M117.15 21.78C119.03 20.92 121.07 20.48 123.41 20.44H123.43C123.43 20.44 123.43 20.42 123.43 20.41C123.41 19.54 123.4 18.6 123.41 17.45C122.82 17.46 122.18 17.42 121.46 17.34C116.61 16.78 112.91 14.32 110.45 10.04C108.78 7.13 107.82 3.86 107.51 0.02V0C107.51 0 107.5 0 107.49 0C106.54 0.02 105.54 0.03 104.52 0.02C104.61 4.32 105.54 7.95 107.36 11.12C108.74 13.53 110.41 15.36 112.48 16.73C112.57 16.77 112.79 16.86 112.8 17.14V17.42L112.49 17.44C112.45 17.44 112.41 17.44 112.37 17.44C110.35 17.45 108.33 17.47 106.31 17.49C101.64 17.53 96.96 17.56 92.29 17.59C81.52 17.65 10.09 17.69 0.0700002 17.72C0.0400002 17.72 0.0200002 17.72 0.0100002 17.72C0.0100002 17.73 0.0100002 17.75 0.0100002 17.77C0.0400002 18.8 0.0500002 19.88 0.0400002 21C0.0400002 21.04 0.0400002 21.07 0.0400002 21.09C0.0600002 21.09 0.0900002 21.09 0.13 21.09L7.74 21.01C20.81 20.87 95.07 20.72 108.36 20.64C109.28 20.64 110.2 20.63 111.13 20.62H113.08L112.82 21.05C112.81 21.07 112.8 21.09 112.79 21.1C112.77 21.14 112.74 21.2 112.66 21.25C110.6 22.59 108.93 24.43 107.54 26.89C105.73 30.1 104.84 33.78 104.81 38.14H104.89C105.81 38.13 106.75 38.11 107.69 38.12C107.74 38.12 107.78 38.12 107.8 38.12C107.8 38.1 107.81 38.07 107.81 38.01C108.07 34.18 109 30.88 110.65 27.93C112.24 25.09 114.43 23.02 117.16 21.78H117.15Z" fill="white"/>
</svg>
