<svg width="52" height="52" viewBox="0 0 52 52" fill="none" xmlns="http://www.w3.org/2000/svg">
<path d="M0.5 25.63C4.99 25.53 9.49 25.39 13.98 25.33C20.63 25.23 25.51 20.4 25.64 13.75C25.73 9.17002 25.85 4.59002 26.03 0.0200195C26.1 3.59002 26.16 7.15002 26.26 10.72C26.31 12.6 26.18 14.51 26.61 16.37C27.79 21.58 32.32 25.23 37.67 25.33C42.27 25.42 46.88 25.53 51.48 25.73C46.97 25.82 42.46 25.9 37.94 26.01C32.28 26.14 27.86 29.63 26.6 34.94C26.26 36.39 26.31 37.87 26.28 39.34C26.18 43.39 26.11 47.45 25.96 51.5C25.85 46.92 25.72 42.34 25.65 37.76C25.55 31.02 20.83 26.19 14.08 26.01C10.12 25.9 6.16 25.85 2.2 25.78C1.63 25.77 1.06 25.78 0.5 25.78C0.5 25.74 0.5 25.69 0.5 25.65V25.63Z" fill="white" stroke="white" stroke-miterlimit="10"/>
</svg>
